<svg width="41" height="41" viewBox="0 0 41 41" fill="none" xmlns="http://www.w3.org/2000/svg">
<g clip-path="url(#clip0_3_575)">
<rect width="41" height="41" fill="white"/>
<rect x="-82" y="-41" width="164" height="164" fill="#2A2A2A"/>
<circle cy="41" r="82" fill="white"/>
<rect x="-56.6515" y="-15.6515" width="114.297" height="114.297" fill="#2A2A2A" stroke="black"/>
<circle cx="0.993958" cy="41" r="55.1636" fill="white"/>
<rect x="-37.2727" y="2.73334" width="77.5273" height="77.5273" fill="#2A2A2A"/>
<circle cx="1.49091" cy="41.497" r="36.7758" fill="white"/>
<rect x="0.3396" y="7.7619" width="47.7091" height="47.7091" transform="rotate(44.7327 0.3396 7.7619)" fill="#2A2A2A"/>
<circle cx="0.496994" cy="41.497" r="20.8727" fill="#FDFDFD"/>
<rect x="-12.4243" y="28.5757" width="24.8485" height="24.8485" fill="#2A2A2A"/>
<circle cx="4.76837e-06" cy="41" r="11.4303" fill="white"/>
<rect x="-0.319458" y="30.4625" width="14.9091" height="14.9091" transform="rotate(43.2637 -0.319458 30.4625)" fill="#2A2A2A"/>
<circle cx="-2.6226e-05" cy="41" r="6.46061" fill="white"/>
<rect x="-4.47272" y="36.5273" width="8.94545" height="8.94545" fill="#2A2A2A"/>
<circle cx="2.81334e-05" cy="41" r="3.47879" fill="white"/>
<rect x="-0.0788574" y="38.5151" width="3.47893" height="3.47893" transform="rotate(43.756 -0.0788574 38.5151)" fill="#2A2A2A"/>
</g>
<defs>
<clipPath id="clip0_3_575">
<rect width="41" height="41" fill="white"/>
</clipPath>
</defs>
</svg>
