<svg width="41" height="41" viewBox="0 0 41 41" fill="none" xmlns="http://www.w3.org/2000/svg">
<g clip-path="url(#clip0_3_565)">
<rect x="-41" y="-82" width="164" height="164" fill="#2A2A2A"/>
<circle cx="41" r="82" fill="white"/>
<rect x="-15.6515" y="-56.6515" width="114.297" height="114.297" fill="#2A2A2A" stroke="black"/>
<circle cx="41.994" r="55.1636" fill="white"/>
<rect x="3.72729" y="-38.2667" width="77.5273" height="77.5273" fill="#2A2A2A"/>
<circle cx="42.4909" cy="0.496979" r="36.7758" fill="white"/>
<rect x="41.3396" y="-33.2381" width="47.7091" height="47.7091" transform="rotate(44.7327 41.3396 -33.2381)" fill="#2A2A2A"/>
<circle cx="41.497" cy="0.496964" r="20.8727" fill="#FDFDFD"/>
<rect x="28.5757" y="-12.4243" width="24.8485" height="24.8485" fill="#2A2A2A"/>
<circle cx="41" cy="4.76837e-06" r="11.4303" fill="white"/>
<rect x="40.6805" y="-10.5375" width="14.9091" height="14.9091" transform="rotate(43.2637 40.6805 -10.5375)" fill="#2A2A2A"/>
<circle cx="41" cy="4.29153e-06" r="6.46061" fill="white"/>
<rect x="36.5273" y="-4.47272" width="8.94545" height="8.94545" fill="#2A2A2A"/>
<circle cx="41" cy="-2.38419e-06" r="3.47879" fill="white"/>
<rect x="40.9211" y="-2.48486" width="3.47893" height="3.47893" transform="rotate(43.756 40.9211 -2.48486)" fill="#2A2A2A"/>
</g>
<defs>
<clipPath id="clip0_3_565">
<rect width="41" height="41" fill="white"/>
</clipPath>
</defs>
</svg>
