<svg width="100" height="180" viewBox="0 0 100 180" fill="none" xmlns="http://www.w3.org/2000/svg">
<rect width="100" height="180" fill="white"/>
<rect x="4.5" y="4.5" width="91" height="171" stroke="black"/>
<rect x="7.25" y="7.25" width="85.5" height="165.5" fill="white" stroke="black" stroke-width="0.5"/>
<circle cx="50" cy="133" r="39.75" fill="white" stroke="black" stroke-width="0.5"/>
<circle cx="50" cy="47" r="39.75" fill="white" stroke="black" stroke-width="0.5"/>
<line x1="18.25" y1="7" x2="18.25" y2="173" stroke="black" stroke-width="0.5"/>
<line x1="82.25" y1="7" x2="82.25" y2="173" stroke="black" stroke-width="0.5"/>
<circle cx="50" cy="133" r="31.5" fill="white" stroke="black"/>
<circle cx="50" cy="47" r="31.5" fill="white" stroke="black"/>
<circle cx="37.5" cy="120.5" r="12.25" fill="white" stroke="black" stroke-width="0.5"/>
<circle cx="63.5" cy="145.5" r="12.25" fill="white" stroke="black" stroke-width="0.5"/>
<circle cx="63.5" cy="120.5" r="12.25" fill="white" stroke="black" stroke-width="0.5"/>
<circle cx="37.5" cy="145.5" r="12.25" fill="white" stroke="black" stroke-width="0.5"/>
<circle cx="37.5" cy="34.5" r="12.25" fill="white" stroke="black" stroke-width="0.5"/>
<circle cx="63.5" cy="59.5" r="12.25" fill="white" stroke="black" stroke-width="0.5"/>
<circle cx="63.5" cy="34.5" r="12.25" fill="white" stroke="black" stroke-width="0.5"/>
<circle cx="37.5" cy="59.5" r="12.25" fill="white" stroke="black" stroke-width="0.5"/>
<line x1="25.5" y1="79" x2="25.5" y2="102" stroke="black"/>
<line x1="74.5" y1="79" x2="74.5" y2="102" stroke="black"/>
<line x1="50.5" y1="7" x2="50.5" y2="173" stroke="black"/>
<circle cx="42" cy="56" r="5.75" fill="white" stroke="black" stroke-width="0.5"/>
<circle cx="42" cy="38" r="5.75" fill="white" stroke="black" stroke-width="0.5"/>
<circle cx="42" cy="142" r="5.75" fill="white" stroke="black" stroke-width="0.5"/>
<circle cx="60" cy="141" r="5.75" fill="white" stroke="black" stroke-width="0.5"/>
<circle cx="60" cy="124" r="5.75" fill="white" stroke="black" stroke-width="0.5"/>
<circle cx="42" cy="124" r="5.75" fill="white" stroke="black" stroke-width="0.5"/>
<circle cx="60" cy="55" r="5.75" fill="white" stroke="black" stroke-width="0.5"/>
<circle cx="60" cy="38" r="5.75" fill="white" stroke="black" stroke-width="0.5"/>
</svg>
