<svg width="164" height="164" viewBox="0 0 164 164" fill="none" xmlns="http://www.w3.org/2000/svg">
<rect width="164" height="164" fill="#2A2A2A"/>
<circle cx="82" cy="82" r="82" fill="white"/>
<rect x="25.3485" y="25.3485" width="114.297" height="114.297" fill="#2A2A2A" stroke="black"/>
<circle cx="82.994" cy="82" r="55.1636" fill="white"/>
<rect x="44.7273" y="43.7333" width="77.5273" height="77.5273" fill="#2A2A2A"/>
<circle cx="83.4909" cy="82.497" r="36.7758" fill="white"/>
<rect x="82.3396" y="48.7619" width="47.7091" height="47.7091" transform="rotate(44.7327 82.3396 48.7619)" fill="#2A2A2A"/>
<circle cx="82.497" cy="82.497" r="20.8727" fill="#FDFDFD"/>
<rect x="69.5757" y="69.5757" width="24.8485" height="24.8485" fill="#2A2A2A"/>
<circle cx="82" cy="82" r="11.4303" fill="white"/>
<rect x="81.6805" y="71.4625" width="14.9091" height="14.9091" transform="rotate(43.2637 81.6805 71.4625)" fill="#2A2A2A"/>
<circle cx="82" cy="82" r="6.46061" fill="white"/>
<rect x="77.5273" y="77.5273" width="8.94545" height="8.94545" fill="#2A2A2A"/>
<circle cx="82" cy="82" r="3.47879" fill="white"/>
<rect x="81.9211" y="79.5151" width="3.47893" height="3.47893" transform="rotate(43.756 81.9211 79.5151)" fill="#2A2A2A"/>
</svg>
